<?xml version="1.0" encoding="UTF-8" standalone="no"?>
<!-- Created with Inkscape (http://www.inkscape.org/) -->

<svg
   xmlns:dc="http://purl.org/dc/elements/1.1/"
   xmlns:cc="http://creativecommons.org/ns#"
   xmlns:rdf="http://www.w3.org/1999/02/22-rdf-syntax-ns#"
   xmlns:svg="http://www.w3.org/2000/svg"
   xmlns="http://www.w3.org/2000/svg"
   xmlns:sodipodi="http://sodipodi.sourceforge.net/DTD/sodipodi-0.dtd"
   xmlns:inkscape="http://www.inkscape.org/namespaces/inkscape"
   width="106.13481"
   height="80.637001"
   id="svg4622"
   version="1.1"
   inkscape:version="0.48.3.1 r9886"
   sodipodi:docname="bano_limitaciones.svg"
   inkscape:export-filename="/home/bfrontera/code/seaboard/static/widgets/beach_flag/images/bano_limitaciones.png"
   inkscape:export-xdpi="90"
   inkscape:export-ydpi="90">
  <defs
     id="defs4624" />
  <sodipodi:namedview
     id="base"
     pagecolor="#ffffff"
     bordercolor="#666666"
     borderopacity="1.0"
     inkscape:pageopacity="0.0"
     inkscape:pageshadow="2"
     inkscape:zoom="3.959798"
     inkscape:cx="149.71997"
     inkscape:cy="64.857625"
     inkscape:document-units="px"
     inkscape:current-layer="layer1"
     showgrid="false"
     inkscape:window-width="1680"
     inkscape:window-height="999"
     inkscape:window-x="1679"
     inkscape:window-y="-10"
     inkscape:window-maximized="1"
     fit-margin-top="0"
     fit-margin-left="0"
     fit-margin-right="0"
     fit-margin-bottom="0" />
  <metadata
     id="metadata4627">
    <rdf:RDF>
      <cc:Work
         rdf:about="">
        <dc:format>image/svg+xml</dc:format>
        <dc:type
           rdf:resource="http://purl.org/dc/dcmitype/StillImage" />
        <dc:title></dc:title>
      </cc:Work>
    </rdf:RDF>
  </metadata>
  <g
     inkscape:label="Capa 1"
     inkscape:groupmode="layer"
     id="layer1"
     transform="translate(-143.78652,-211.9573)">
    <path
       style="color:#000000;fill:#5ecad2;fill-opacity:1;stroke:none;stroke-width:0.05247705px;marker:none;visibility:visible;display:inline;overflow:visible;enable-background:accumulate"
       d="m 161.69548,211.9573 c -0.66613,0 -1.46043,0.38235 -1.75982,0.86677 -0.29938,0.48442 -0.33643,1.43 -0.0788,2.10128 0.2576,0.67128 1.05189,1.2345 1.75982,1.2345 0.81262,0 1.28703,-0.77467 1.28703,-2.10128 0,-1.26921 -0.47667,-2.10127 -1.20824,-2.10127 z m 7.43328,2.94179 c -0.43491,-0.002 -0.92279,0.26613 -1.49717,0.84051 -0.76041,0.76041 -1.18198,1.72879 -0.9193,2.15381 0.26266,0.42501 1.0529,0.78798 1.73355,0.78798 0.68065,0 1.45554,-0.58881 1.73355,-1.3133 0.27802,-0.7245 0.11947,-1.69289 -0.34145,-2.15381 -0.2089,-0.2089 -0.44825,-0.31415 -0.70918,-0.31519 z m -15.83839,0.84051 c -0.26022,0.002 -0.50029,0.10629 -0.70918,0.31519 -0.46092,0.46092 -0.61947,1.42931 -0.34146,2.15381 0.27802,0.72449 1.29354,1.3133 2.23261,1.3133 0.93908,0 1.70729,-0.35873 1.70729,-0.78798 0,-0.42927 -0.63594,-1.39765 -1.3921,-2.15381 -0.57117,-0.57116 -1.06346,-0.84346 -1.49716,-0.84051 z m 8.48391,2.94179 c -1.75008,0 -3.40707,0.62788 -4.36015,1.68102 -0.84212,0.93053 -1.52343,2.82004 -1.52343,4.17629 0,1.35625 0.51686,3.09133 1.15571,3.8611 0.63885,0.76976 1.91187,1.6638 2.81046,1.99621 0.89858,0.33241 2.52922,0.44581 3.6247,0.23639 1.09549,-0.20942 2.55061,-1.18282 3.23072,-2.15381 0.6801,-0.97098 1.2345,-2.81351 1.2345,-4.09749 0,-1.28398 -0.75646,-3.09413 -1.68103,-4.01869 -1.01095,-1.01096 -2.80064,-1.68102 -4.49148,-1.68102 z m 41.97303,1.68102 c -1.15691,0 -3.0955,0.44583 -4.30762,0.9981 -1.21213,0.55229 -2.75582,2.0619 -3.41458,3.33578 -0.65875,1.2739 -1.17207,3.35485 -1.1557,4.64908 0.0164,1.29423 0.51708,3.25533 1.12944,4.36015 0.61235,1.10482 2.02083,2.5133 3.12565,3.12565 1.10482,0.61236 3.06592,1.13933 4.36015,1.15571 1.29423,0.0164 3.40146,-0.52322 4.67534,-1.18197 1.27389,-0.65876 2.78351,-2.17619 3.33578,-3.38831 0.55228,-1.21212 0.99811,-3.11663 0.99811,-4.22882 0,-1.1122 -0.44583,-3.01671 -0.99811,-4.22883 -0.55227,-1.21212 -2.06189,-2.75581 -3.33578,-3.41457 -1.27388,-0.65875 -3.25577,-1.18197 -4.41268,-1.18197 z m -52.24302,2.52153 c -1.20973,0 -2.04875,0.47988 -2.04875,1.18197 0,0.65489 0.47279,1.39532 1.05064,1.62849 0.57785,0.23317 1.23975,0.44337 1.47089,0.47279 0.23114,0.0294 0.93889,-0.2794 1.57596,-0.68292 0.63708,-0.40352 0.8955,-1.16705 0.57785,-1.68102 -0.31764,-0.51396 -1.49817,-0.91931 -2.62659,-0.91931 z m 21.11784,0 c -1.24208,0 -2.15381,0.48588 -2.15381,1.12944 0,0.61638 0.25368,1.38312 0.57785,1.70729 0.32417,0.32416 1.1805,0.47831 1.89115,0.34145 0.71066,-0.13686 1.42119,-0.92987 1.57596,-1.73355 0.20844,-1.08233 -0.28911,-1.44463 -1.89115,-1.44463 z m -18.07099,6.72409 c -0.89728,0 -1.88069,0.38236 -2.18008,0.86678 -0.29938,0.48442 -0.33643,1.42999 -0.0788,2.10128 0.2576,0.67128 0.77137,1.2345 1.1557,1.2345 0.38434,0 1.15255,-0.46964 1.70729,-1.02438 0.55473,-0.55473 1.02437,-1.50031 1.02437,-2.10127 0,-0.60097 -0.73121,-1.07691 -1.62849,-1.07691 z m 46.01799,0 c 1.76077,0 3.93559,0.56703 4.83294,1.26077 1.60109,1.23778 1.57951,1.29268 -0.36773,2.94179 -1.09135,0.92425 -2.22604,1.66881 -2.52153,1.65475 -0.2955,-0.014 -1.28178,-0.44754 -2.20634,-0.97184 -0.92457,-0.52428 -1.97178,-1.36309 -2.31141,-1.86488 -0.33963,-0.50179 -0.62331,-1.3921 -0.63038,-1.96995 -0.008,-0.65887 1.1968,-1.05064 3.20445,-1.05064 z m -33.20019,0.94558 c -0.69661,0.0577 -1.10318,0.38455 -1.10318,0.9193 0,0.63312 0.44337,1.59908 0.99811,2.15381 0.55474,0.55474 1.5207,1.02438 2.15381,1.02438 0.713,0 1.05941,-0.71979 0.89304,-1.89115 -0.1726,-1.21535 -0.93846,-1.9812 -2.15381,-2.15381 -0.29284,-0.0416 -0.55578,-0.0718 -0.78797,-0.0525 z m -6.17251,1.73355 c -0.52523,-0.0345 -1.09383,0.384 -1.33956,1.02437 -0.28085,0.73187 -0.28085,1.94727 0,2.67913 0.28084,0.73186 0.99834,1.16439 1.57595,0.97184 0.57761,-0.19253 1.05064,-1.23275 1.05064,-2.3114 0,-1.07866 -0.47303,-2.11887 -1.05064,-2.31141 -0.0722,-0.024 -0.16136,-0.0476 -0.23639,-0.0525 z m 33.85684,5.72598 c -0.54631,0 -2.39456,1.2102 -4.09749,2.7054 -1.70293,1.49518 -3.60425,3.94226 -4.22882,5.43705 -0.62456,1.49479 -1.12944,3.88108 -1.12944,5.30573 0,1.42465 0.55072,3.69452 1.2345,5.0168 0.68378,1.32229 2.63765,3.53982 4.33389,4.93801 3.08407,2.54215 3.09231,2.55138 2.52153,10.1124 -0.57077,7.56102 -0.58562,7.55852 2.04875,10.55892 1.64419,1.87261 3.39196,2.99432 4.64907,2.99432 1.9168,0 2.02248,-0.25891 2.02248,-5.41079 0,-2.97755 0.33669,-5.64717 0.76172,-5.90985 0.42502,-0.26268 1.22571,0.96759 1.78608,2.7054 0.56038,1.73781 1.35133,3.80477 1.75982,4.59654 0.41958,0.81327 1.29122,1.21611 1.99622,0.94558 0.68637,-0.26338 1.26077,-0.92467 1.26077,-1.4709 0,-0.54621 0.76858,-2.47631 1.70728,-4.30761 1.52056,-2.96644 1.59091,-3.78173 0.70918,-7.48581 -0.94761,-3.98088 -0.9046,-4.22329 1.02438,-5.46332 1.10803,-0.71229 3.03509,-2.35172 4.28135,-3.65097 1.41469,-1.47485 2.46898,-3.73775 2.81046,-6.01491 0.40719,-2.71531 0.12988,-4.59323 -1.10317,-7.38074 -0.91096,-2.05938 -2.80165,-4.57085 -4.20256,-5.56838 -1.40091,-0.99754 -3.19285,-1.81236 -3.99242,-1.81236 -0.79957,0 -2.90337,0.44094 -4.67535,0.97184 -2.64809,0.79339 -3.87348,0.71856 -6.85542,-0.42025 -1.99536,-0.76204 -4.07649,-1.3921 -4.62281,-1.3921 z m -1.60222,10.42759 c 0.36171,-0.0421 0.75215,0.14359 0.97184,0.49906 0.29292,0.47395 0.29188,1.6011 0,2.52153 -0.29213,0.92043 -0.88217,1.68102 -1.3133,1.68102 -0.43112,0 -0.78798,-0.92032 -0.78798,-2.04874 0,-1.12842 0.35765,-2.28184 0.78798,-2.5478 0.10759,-0.0665 0.22089,-0.091 0.34146,-0.10507 z m 18.70137,0 c 0.30673,-0.072 0.61027,0.28379 1.07691,1.15571 0.51197,0.95662 0.94557,2.30085 0.94557,2.96805 0,0.66722 -0.50905,1.63894 -1.12944,2.15381 -0.62038,0.51487 -1.37684,0.6719 -1.68102,0.36773 -0.30417,-0.30419 -0.55866,-1.51117 -0.55158,-2.7054 0.007,-1.19422 0.3562,-2.69547 0.76171,-3.33578 0.22176,-0.35016 0.39381,-0.56091 0.57785,-0.60412 z m -40.39707,24.03337 c -1.60566,0 -2.19097,0.79771 -3.49337,4.72788 -1.23636,3.73085 -2.31662,5.27939 -5.06933,7.24941 -2.17579,1.55713 -4.96306,2.67223 -7.35448,2.94178 -3.52279,0.39707 -4.04417,0.19563 -6.43516,-2.36393 -2.04,-2.18383 -2.90833,-2.61095 -3.96616,-1.94369 -0.74368,0.4691 -1.47295,1.24066 -1.62849,1.70729 -0.15555,0.46665 0.5363,1.88988 1.54969,3.17819 1.01339,1.28831 3.01289,2.8462 4.43895,3.4671 1.42604,0.62091 3.73502,1.14019 5.12186,1.15571 1.38685,0.0156 4.00072,-0.36588 5.80478,-0.86678 1.82669,-0.50718 4.97213,-2.51646 7.11808,-4.54401 3.8534,-3.64082 3.85822,-3.65645 8.16872,0.42025 2.89165,2.73481 5.33087,4.28094 7.43327,4.67535 1.88797,0.35419 4.43133,0.14493 6.38263,-0.49906 2.61546,-0.86317 3.72999,-0.85903 5.80478,0 1.47245,0.60991 4.48791,0.92077 7.03928,0.70918 3.2254,-0.26747 5.50838,-1.10806 8.32632,-3.04685 2.13942,-1.47158 4.25243,-2.67913 4.67534,-2.67913 0.42291,0 1.48439,0.78793 2.36394,1.75982 0.87955,0.97189 2.68526,2.33105 4.01869,3.02059 1.61648,0.83592 3.4358,1.05779 5.46333,0.68291 1.67249,-0.30923 4.37065,-0.55158 5.98864,-0.55158 1.61798,0 4.31615,0.24235 5.98864,0.55158 2.08978,0.38639 3.84347,0.14476 5.64718,-0.78798 1.44356,-0.74649 3.20537,-2.22856 3.91364,-3.30951 0.70825,-1.08094 1.05279,-2.60349 0.76171,-3.36204 -0.29109,-0.75856 -1.17821,-1.36583 -1.96995,-1.36583 -0.79174,0 -2.25211,0.94557 -3.25698,2.10127 -1.0428,1.19933 -2.73423,2.10128 -3.9399,2.10128 -1.20567,0 -2.8971,-0.90195 -3.93989,-2.10128 -1.00488,-1.1557 -2.44662,-2.10127 -3.20445,-2.10127 -0.75783,0 -2.19958,0.94557 -3.20445,2.10127 -1.08845,1.25184 -2.74599,2.10128 -4.07123,2.10128 -1.46697,0 -3.07906,-0.96106 -4.75414,-2.83672 -1.39703,-1.56432 -2.93789,-4.11737 -3.44084,-5.67345 -0.61158,-1.89215 -1.45856,-2.83673 -2.52153,-2.83673 -0.87419,0 -1.8737,0.56735 -2.23261,1.26077 -0.35892,0.69342 -1.08848,2.45113 -1.62849,3.91363 -0.73764,1.99773 -2.00686,3.09524 -5.06934,4.41268 -2.24197,0.96448 -5.03662,1.75982 -6.19877,1.75982 -1.29756,0 -3.10073,-1.05417 -4.67534,-2.73166 -2.56414,-2.73166 -2.54938,-2.74427 -5.1744,0.0525 -2.12554,2.26464 -3.04513,2.69492 -4.83293,2.25888 -1.21437,-0.29618 -3.64507,-1.52001 -5.4108,-2.73166 -1.76572,-1.21167 -3.7283,-3.17405 -4.33388,-4.36016 -0.60557,-1.18611 -1.35748,-3.38305 -1.68102,-4.88547 -0.4567,-2.12071 -1.01894,-2.73166 -2.52154,-2.73166 z"
       id="rect4608"
       inkscape:connector-curvature="0" />
  </g>
</svg>
