<?xml version="1.0" encoding="UTF-8" standalone="no"?>
<!-- Created with Inkscape (http://www.inkscape.org/) -->

<svg
   xmlns:dc="http://purl.org/dc/elements/1.1/"
   xmlns:cc="http://creativecommons.org/ns#"
   xmlns:rdf="http://www.w3.org/1999/02/22-rdf-syntax-ns#"
   xmlns:svg="http://www.w3.org/2000/svg"
   xmlns="http://www.w3.org/2000/svg"
   xmlns:sodipodi="http://sodipodi.sourceforge.net/DTD/sodipodi-0.dtd"
   xmlns:inkscape="http://www.inkscape.org/namespaces/inkscape"
   width="98.84584"
   height="77.223297"
   id="svg4708"
   version="1.1"
   inkscape:version="0.48.3.1 r9886"
   sodipodi:docname="bano_permitido.svg"
   inkscape:export-filename="/home/bfrontera/code/seaboard/static/widgets/beach_flag/images/bano_permitido.png"
   inkscape:export-xdpi="90"
   inkscape:export-ydpi="90">
  <defs
     id="defs4710">
    <clipPath
       clipPathUnits="userSpaceOnUse"
       id="clipPath292">
      <path
         d="m 0,0 1600,0 0,1200 L 0,1200 0,0 z"
         id="path294"
         inkscape:connector-curvature="0" />
    </clipPath>
  </defs>
  <sodipodi:namedview
     id="base"
     pagecolor="#ffffff"
     bordercolor="#666666"
     borderopacity="1.0"
     inkscape:pageopacity="0.0"
     inkscape:pageshadow="2"
     inkscape:zoom="2.8"
     inkscape:cx="191.93053"
     inkscape:cy="72.909367"
     inkscape:document-units="px"
     inkscape:current-layer="g290"
     showgrid="false"
     fit-margin-top="0"
     fit-margin-left="0"
     fit-margin-right="0"
     fit-margin-bottom="0"
     inkscape:window-width="1680"
     inkscape:window-height="999"
     inkscape:window-x="1679"
     inkscape:window-y="-10"
     inkscape:window-maximized="1" />
  <metadata
     id="metadata4713">
    <rdf:RDF>
      <cc:Work
         rdf:about="">
        <dc:format>image/svg+xml</dc:format>
        <dc:type
           rdf:resource="http://purl.org/dc/dcmitype/StillImage" />
        <dc:title></dc:title>
      </cc:Work>
    </rdf:RDF>
  </metadata>
  <g
     inkscape:label="Capa 1"
     inkscape:groupmode="layer"
     id="layer1"
     transform="translate(149.25758,-329.71259)">
    <g
       transform="matrix(0.81,0,0,-0.81,-661.75754,801.83996)"
       clip-path="url(#clipPath292)"
       id="g290">
      <path
         inkscape:connector-curvature="0"
         d="m 684.8585,534.9937 c 0,6.253 -5.069,11.321 -11.321,11.321 -6.253,0 -11.322,-5.068 -11.322,-11.321 0,-6.253 5.069,-11.321 11.322,-11.321 6.252,0 11.321,5.068 11.321,11.321 m -8.437,-8.425 c -2.59,-1.1 -5.44,-0.221 -6.367,1.962 -0.927,2.183 8.453,6.164 9.379,3.981 0.927,-2.183 -0.422,-4.844 -3.012,-5.943"
         style="fill:#48c3d2;fill-opacity:1;fill-rule:nonzero;stroke:none"
         id="path306" />
      <path
         inkscape:connector-curvature="0"
         d="m 735.359,499.0609 c 0,0 0,1.633 -1.608,1.633 -1.798,0 -1.656,-1.633 -1.656,-1.633 0,-4.535 -3.622,-8.211 -8.09,-8.211 -4.468,0 -8.089,3.676 -8.089,8.211 0,0 0.104,1.429 -1.358,1.6 -0.084,0.011 -0.156,0.033 -0.251,0.033 l -0.012,-10e-4 -0.012,10e-4 c -0.096,0 -0.169,-0.022 -0.254,-0.033 -1.483,-0.171 -1.379,-1.6 -1.379,-1.6 0,-4.535 -3.622,-8.211 -8.089,-8.211 -4.468,0 -8.09,3.676 -8.09,8.211 0,0 0.105,1.429 -1.358,1.6 -0.084,0.011 -0.156,0.033 -0.251,0.033 l -0.012,-10e-4 -0.011,10e-4 c -0.097,0 -0.169,-0.022 -0.255,-0.033 -1.483,-0.171 -1.378,-1.6 -1.378,-1.6 0,-4.535 -3.622,-8.211 -8.09,-8.211 -4.468,0 -8.09,3.676 -8.09,8.211 0,0 0.105,1.428 -1.356,1.6 -0.085,0.011 -0.157,0.033 -0.253,0.033 l -0.011,-10e-4 -0.012,10e-4 c -0.097,0 -0.17,-0.022 -0.255,-0.033 -1.483,-0.171 -1.378,-1.6 -1.378,-1.6 0,-4.535 -3.622,-8.211 -8.09,-8.211 -4.467,0 -8.089,3.676 -8.089,8.211 0,0 0.142,1.633 -1.632,1.633 -1.633,0 -1.633,-1.633 -1.633,-1.633 0,-6.365 5.084,-11.525 11.354,-11.525 4.131,0 7.736,2.247 9.723,5.595 1.986,-3.348 5.591,-5.595 9.722,-5.595 4.131,0 7.736,2.247 9.722,5.595 1.987,-3.348 5.592,-5.595 9.723,-5.595 4.131,0 7.736,2.247 9.722,5.595 1.986,-3.348 5.591,-5.595 9.722,-5.595 6.271,0 11.354,5.16 11.354,11.525"
         style="fill:#48c3d2;fill-opacity:1;fill-rule:nonzero;stroke:none"
         id="path310" />
      <path
         inkscape:connector-curvature="0"
         d="m 754.7479,516.5154 c 0,0 0,1.633 -1.606,1.633 -1.797,0 -1.655,-1.633 -1.655,-1.633 0,-4.535 -3.619,-8.211 -8.082,-8.211 -4.464,0 -8.082,3.676 -8.082,8.211 0,0 0.104,1.429 -1.357,1.6 -0.084,0.011 -0.156,0.033 -0.251,0.033 l -0.011,-0.001 -0.012,0.001 c -0.096,0 -0.169,-0.022 -0.255,-0.033 -1.481,-0.171 -1.377,-1.6 -1.377,-1.6 0,-4.535 -3.618,-8.211 -8.082,-8.211 -4.463,0 -8.082,3.676 -8.082,8.211 0,0 0.105,1.429 -1.356,1.6 -0.084,0.011 -0.156,0.033 -0.251,0.033 l -0.012,-0.001 -0.011,0.001 c -0.097,0 -0.17,-0.022 -0.255,-0.033 -1.482,-0.171 -1.377,-1.6 -1.377,-1.6 0,-4.535 -3.619,-8.211 -8.082,-8.211 -4.464,0 -8.082,3.676 -8.082,8.211 0,0 0.104,1.429 -1.357,1.6 -0.084,0.011 -0.156,0.033 -0.251,0.033 l -0.011,-0.001 -0.012,0.001 c -0.096,0 -0.169,-0.022 -0.255,-0.033 -1.481,-0.171 -1.377,-1.6 -1.377,-1.6 0,-4.535 -3.618,-8.211 -8.082,-8.211 -4.463,0 -8.082,3.676 -8.082,8.211 0,0 0.105,1.428 -1.355,1.6 -0.085,0.011 -0.157,0.033 -0.252,0.033 l -0.012,-0.001 -0.011,0.001 c -0.097,0 -0.17,-0.022 -0.256,-0.033 -1.481,-0.171 -1.376,-1.6 -1.376,-1.6 0,-4.535 -3.619,-8.211 -8.082,-8.211 -4.464,0 -8.082,3.676 -8.082,8.211 0,0 0.104,1.428 -1.356,1.6 -0.084,0.011 -0.156,0.033 -0.252,0.033 l -0.011,-0.001 -0.012,0.001 c -0.097,0 -0.17,-0.022 -0.255,-0.033 -1.481,-0.171 -1.377,-1.6 -1.377,-1.6 0,-4.535 -3.618,-8.211 -8.082,-8.211 -4.464,0 -8.082,3.676 -8.082,8.211 0,0 0.142,1.633 -1.63,1.633 -1.631,0 -1.631,-1.633 -1.631,-1.633 0,-6.365 5.078,-11.525 11.343,-11.525 4.127,0 7.729,2.247 9.713,5.595 1.985,-3.348 5.586,-5.595 9.714,-5.595 4.127,0 7.728,2.247 9.713,5.595 1.985,-3.348 5.586,-5.595 9.713,-5.595 4.127,0 7.729,2.247 9.713,5.595 1.985,-3.348 5.587,-5.595 9.714,-5.595 4.127,0 7.728,2.247 9.713,5.595 1.985,-3.348 5.586,-5.595 9.713,-5.595 4.127,0 7.729,2.247 9.713,5.595 1.985,-3.348 5.587,-5.595 9.714,-5.595 6.265,0 11.343,5.16 11.343,11.525"
         style="fill:#48c3d2;fill-opacity:1;fill-rule:nonzero;stroke:none"
         id="path314" />
      <path
         inkscape:connector-curvature="0"
         d="m 701.8405,548.5792 c -5.877,0 -10.902,-8.467 -13.618,-12.951 0.009,-0.212 0.032,-0.421 0.032,-0.635 0,-5.447 -2.967,-10.192 -7.366,-12.737 0.554,-1.202 1.511,-2.781 2.838,-3.112 4.528,-1.133 6.793,1.934 9.057,4.198 2.264,2.264 4.199,0 4.199,0 0,0 3.726,-3.869 5.99,-5.331 3.008,-1.942 5.661,4.529 5.661,4.529 l -13.586,9.387 c 0,0 4.529,8.727 7.925,8.727 3.397,0 9.057,-7.925 10.189,-9.057 1.132,-1.132 3.397,-4.528 6.793,-1.132 3.397,3.396 -11.321,18.114 -18.114,18.114"
         style="fill:#48c3d2;fill-opacity:1;fill-rule:nonzero;stroke:none"
         id="path318" />
      <path
         inkscape:connector-curvature="0"
         d="m 667.015,565.7233 c 0,0.815 -0.355,2.279 -0.792,2.279 l -5.544,-0.802 c -0.437,0 -0.792,-0.662 -0.792,-1.477 0,-0.816 0.355,-1.477 0.792,-1.477 l 5.544,-0.802 c 0.437,0 0.792,1.463 0.792,2.279 m -3.972,9.955 c 0.309,0.309 -0.474,1.594 -1.051,2.172 -0.576,0.576 -1.862,1.36 -2.172,1.051 l -3.352,-4.488 c -0.31,-0.308 -0.093,-1.028 0.484,-1.604 0.577,-0.577 1.295,-0.793 1.604,-0.484 l 4.487,3.353 z m -5.258,-9.955 c 0,4.374 -3.546,7.92 -7.92,7.92 -4.374,0 -7.92,-3.546 -7.92,-7.92 0,-4.374 3.546,-7.92 7.92,-7.92 4.374,0 7.92,3.546 7.92,7.92 m -6.443,10.814 0.802,5.544 c 0,0.437 -1.464,0.792 -2.279,0.792 -0.816,0 -2.279,-0.355 -2.279,-0.792 l 0.803,-5.544 c 0,-0.438 0.66,-0.793 1.476,-0.793 0.815,0 1.477,0.355 1.477,0.793 m -8.563,-3.728 c 0.577,0.577 0.793,1.295 0.484,1.604 l -3.353,4.488 c -0.309,0.309 -1.594,-0.474 -2.171,-1.052 -0.576,-0.576 -1.361,-1.862 -1.052,-2.171 l 4.488,-3.353 c 0.309,-0.309 1.028,-0.092 1.604,0.484 m -3.727,-5.609 -5.544,0.802 c -0.437,0 -0.792,-1.464 -0.792,-2.279 0,-0.816 0.355,-2.279 0.792,-2.279 l 5.544,0.802 c 0.437,0 0.792,0.661 0.792,1.477 0,0.815 -0.355,1.477 -0.792,1.477 m -2.365,-11.432 c -0.309,-0.309 0.476,-1.595 1.052,-2.172 0.577,-0.577 1.862,-1.36 2.171,-1.051 l 3.353,4.487 c 0.309,0.31 0.093,1.027 -0.484,1.605 -0.576,0.576 -1.295,0.793 -1.604,0.484 l -4.488,-3.353 z m 11.702,-0.859 -0.803,-5.544 c 0,-0.437 1.463,-0.792 2.279,-0.792 0.815,0 2.279,0.355 2.279,0.792 l -0.802,5.544 c 0,0.437 -0.662,0.792 -1.477,0.792 -0.816,0 -1.476,-0.355 -1.476,-0.792 m 8.563,3.728 c -0.577,-0.577 -0.794,-1.296 -0.484,-1.605 l 3.352,-4.487 c 0.31,-0.309 1.596,0.475 2.172,1.051 0.577,0.577 1.36,1.863 1.051,2.172 l -4.487,3.353 c -0.309,0.309 -1.027,0.093 -1.604,-0.484"
         style="fill:#48c3d2;fill-opacity:1;fill-rule:nonzero;stroke:none"
         id="path322" />
    </g>
  </g>
</svg>
